<svg xmlns="http://www.w3.org/2000/svg" xmlns:xlink="http://www.w3.org/1999/xlink" viewBox="0,0,256,256" width="72px" height="72px" fill-rule="nonzero"><g fill="#ffffff" fill-rule="nonzero" stroke="none" stroke-width="1" stroke-linecap="butt" stroke-linejoin="miter" stroke-miterlimit="10" stroke-dasharray="" stroke-dashoffset="0" font-family="none" font-weight="none" font-size="none" text-anchor="none" style="mix-blend-mode: normal"><g transform="scale(10.66667,10.66667)"><path d="M21.562,18.733l-2.767,-2.767c-0.569,-0.569 -0.779,-1.431 -0.465,-2.172c0.588,-1.386 0.822,-2.957 0.57,-4.609c-0.548,-3.591 -3.422,-6.507 -7.01,-7.075c-5.779,-0.915 -10.695,4 -9.779,9.779c0.568,3.588 3.484,6.461 7.075,7.01c1.652,0.252 3.223,0.019 4.609,-0.57c0.741,-0.315 1.603,-0.104 2.172,0.465l2.767,2.767c0.586,0.586 1.536,0.586 2.121,0l0.707,-0.707c0.586,-0.585 0.586,-1.535 0,-2.121zM4,10.5c0,-3.584 2.916,-6.5 6.5,-6.5c3.584,0 6.5,2.916 6.5,6.5c0,3.584 -2.916,6.5 -6.5,6.5c-3.584,0 -6.5,-2.916 -6.5,-6.5z"></path></g></g></svg>